<?xml version="1.0" encoding="UTF-8" standalone="no"?>
<!DOCTYPE svg PUBLIC "-//W3C//DTD SVG 1.1//EN" "http://www.w3.org/Graphics/SVG/1.1/DTD/svg11.dtd">
<svg width="100%" height="100%" viewBox="0 0 947 316" version="1.1" xmlns="http://www.w3.org/2000/svg" xmlns:xlink="http://www.w3.org/1999/xlink" xml:space="preserve" xmlns:serif="http://www.serif.com/" style="fill-rule:evenodd;clip-rule:evenodd;stroke-linejoin:round;stroke-miterlimit:2;">
    <g transform="matrix(1.75577,0,0,1,-412.802,8.22151)">
        <path d="M398.568,132.362L440.831,132.014C445.188,132.333 449.138,137.752 450.406,150.193C448.995,160.975 444.906,167.438 440.343,168.594L399.774,168.587C395.284,167.272 391.656,160.006 391.276,151.21C390.904,142.592 392.847,135.066 398.568,132.362Z" style="fill-rule:nonzero;"/>
        <path d="M521.912,240.22C517.866,240.22 514.298,239.188 511.209,237.124C508.12,235.06 505.523,232.132 503.418,228.34C501.313,224.548 499.713,219.964 498.62,214.588C497.526,209.212 496.98,203.212 496.98,196.588L496.98,119.404L489.762,119.404C488.45,119.404 487.329,118.66 486.4,117.172C485.47,115.684 485.005,113.5 485.005,110.62L485.005,93.196L498.538,88.588L503.541,52.156C504.197,47.548 506.056,45.244 509.118,45.244L522.404,45.244L522.404,88.876L543.072,88.876L543.072,119.404L522.404,119.404L522.404,193.564C522.404,197.02 522.883,199.876 523.84,202.132C524.796,204.388 526.177,205.516 527.981,205.516C528.911,205.516 529.69,205.348 530.319,205.012C530.948,204.676 531.494,204.292 531.959,203.86C532.424,203.428 532.861,203.044 533.271,202.708C533.681,202.372 534.16,202.204 534.707,202.204C535.472,202.204 536.087,202.516 536.552,203.14C537.017,203.764 537.495,204.748 537.987,206.092L545.697,227.26C542.416,231.58 538.725,234.82 534.625,236.98C530.524,239.14 526.286,240.22 521.912,240.22Z" style="fill-rule:nonzero;"/>
        <path d="M595.562,86.284C602.014,86.284 607.891,88.06 613.195,91.612C618.499,95.164 623.051,100.252 626.851,106.876C630.651,113.5 633.603,121.54 635.708,130.996C637.813,140.452 638.866,151.084 638.866,162.892C638.866,174.796 637.813,185.524 635.708,195.076C633.603,204.628 630.651,212.74 626.851,219.412C623.051,226.084 618.499,231.22 613.195,234.82C607.891,238.42 602.014,240.22 595.562,240.22C589.055,240.22 583.137,238.42 577.806,234.82C572.475,231.22 567.882,226.084 564.027,219.412C560.172,212.74 557.192,204.628 555.087,195.076C552.982,185.524 551.93,174.796 551.93,162.892C551.93,151.084 552.982,140.452 555.087,130.996C557.192,121.54 560.172,113.5 564.027,106.876C567.882,100.252 572.475,95.164 577.806,91.612C583.137,88.06 589.055,86.284 595.562,86.284ZM595.562,207.1C601.412,207.1 605.718,203.476 608.479,196.228C611.24,188.98 612.621,177.964 612.621,163.18C612.621,148.396 611.24,137.404 608.479,130.204C605.718,123.004 601.412,119.404 595.562,119.404C589.547,119.404 585.146,123.004 582.357,130.204C579.569,137.404 578.175,148.396 578.175,163.18C578.175,177.964 579.569,188.98 582.357,196.228C585.146,203.476 589.547,207.1 595.562,207.1Z" style="fill-rule:nonzero;"/>
        <path d="M690.7,86.284C697.151,86.284 703.029,88.06 708.333,91.612C713.636,95.164 718.188,100.252 721.988,106.876C725.788,113.5 728.741,121.54 730.846,130.996C732.951,140.452 734.004,151.084 734.004,162.892C734.004,174.796 732.951,185.524 730.846,195.076C728.741,204.628 725.788,212.74 721.988,219.412C718.188,226.084 713.636,231.22 708.333,234.82C703.029,238.42 697.151,240.22 690.7,240.22C684.193,240.22 678.274,238.42 672.943,234.82C667.612,231.22 663.019,226.084 659.165,219.412C655.31,212.74 652.33,204.628 650.225,195.076C648.12,185.524 647.067,174.796 647.067,162.892C647.067,151.084 648.12,140.452 650.225,130.996C652.33,121.54 655.31,113.5 659.165,106.876C663.019,100.252 667.612,95.164 672.943,91.612C678.274,88.06 684.193,86.284 690.7,86.284ZM690.7,207.1C696.55,207.1 700.856,203.476 703.617,196.228C706.378,188.98 707.759,177.964 707.759,163.18C707.759,148.396 706.378,137.404 703.617,130.204C700.856,123.004 696.55,119.404 690.7,119.404C684.685,119.404 680.284,123.004 677.495,130.204C674.707,137.404 673.312,148.396 673.312,163.18C673.312,177.964 674.707,188.98 677.495,196.228C680.284,203.476 684.685,207.1 690.7,207.1Z" style="fill-rule:nonzero;"/>
        <rect x="748.766" y="22.348" width="25.425" height="215.568"/>
    </g>
    <g transform="matrix(1,0,0,1,0.00025,0.00025)">
        <path d="M137.855,176.964L8.036,47.145C-2.679,36.43 -2.679,19.468 8.036,8.753L8.743,8.036C19.459,-2.679 36.43,-2.679 47.135,8.036L176.964,137.855C187.679,148.57 187.679,165.532 176.964,176.247L176.247,176.964C165.532,187.679 148.57,187.679 137.855,176.964" style="fill:rgb(15,210,255);"/>
    </g>
    <g transform="matrix(1,0,0,1,0.00025,0.00025)">
        <path d="M267.855,306.964L138.036,177.145C127.321,166.43 127.321,149.468 138.036,138.753L138.753,138.036C149.468,127.321 166.43,127.321 177.145,138.036L306.964,267.865C317.679,278.57 317.679,295.532 306.964,306.247L306.247,306.964C295.532,317.679 278.57,317.679 267.855,306.964" style="fill:rgb(195,130,250);"/>
    </g>
    <g transform="matrix(1,0,0,1,0.00025,0.00025)">
        <path d="M138.83,177.96L55.04,94.17C44.32,83.449 44.32,66.478 55.04,55.758L55.748,55.04C66.468,44.32 83.448,44.32 94.16,55.04L177.96,138.83C188.68,149.551 188.68,166.522 177.96,177.242L177.242,177.96C166.522,188.68 149.552,188.68 138.831,177.96" style="fill:rgb(0,130,250);"/>
    </g>
    <g transform="matrix(1,0,0,1,0.00025,0.00025)">
        <path d="M217.297,256.55L138.084,177.391C127.305,166.621 127.305,149.57 138.084,138.799L138.805,138.079C149.584,127.307 166.645,127.307 177.424,138.079L255.916,216.516C266.695,227.287 266.695,244.347 255.916,255.109L255.195,255.829C244.605,266.6 227.355,266.6 217.297,256.55" style="fill:rgb(130,80,250);"/>
    </g>
    <g transform="matrix(1,0,0,1,0.00025,0.00025)">
        <path d="M267.941,9.052L9.051,267.766C-1.684,278.502 -1.684,295.496 9.051,306.232L9.771,306.941C20.506,317.686 37.501,317.686 48.236,306.941L306.948,48.236C317.684,37.501 317.684,20.506 306.948,9.77L306.23,9.052C295.671,-1.684 278.677,-1.684 267.941,9.052" style="fill:rgb(250,0,100);"/>
    </g>
    <g transform="matrix(1,0,0,1,0.00025,0.00025)">
        <path d="M211.786,64.528L44.048,232.68C33.318,243.436 33.318,260.464 44.048,271.22L44.756,271.94C55.487,282.687 72.473,282.687 83.204,271.94L250.952,103.788C261.682,93.031 261.682,76.004 250.952,65.248L250.234,64.528C239.504,54.491 221.976,54.491 211.786,64.528" style="fill:rgb(190,0,100);"/>
    </g>
    <g transform="matrix(1,0,0,1,0.00025,0.00025)">
        <path d="M197.304,157.884L231.944,192.523C242.685,203.265 242.685,220.269 231.944,231.011L231.226,231.731C220.486,242.472 203.483,242.472 192.743,231.731L158.106,197.088L108.257,246.943C97.517,257.686 80.515,257.686 69.774,246.943L69.055,246.234C58.315,235.492 58.315,218.488 69.055,207.736L118.906,157.883L77.294,116.263C66.553,105.522 66.553,88.517 77.294,77.775L78.012,77.057C88.743,66.314 105.755,66.314 116.485,77.057L158.105,118.682L183.973,92.812C194.713,82.07 211.716,82.07 222.456,92.812L223.175,93.532C233.915,104.273 233.915,121.277 223.175,132.01L197.305,157.884L197.304,157.884Z"/>
    </g>
</svg>
