<?xml version="1.0" encoding="UTF-8" standalone="no"?><!DOCTYPE svg PUBLIC "-//W3C//DTD SVG 1.1//EN" "http://www.w3.org/Graphics/SVG/1.1/DTD/svg11.dtd"><svg width="100%" height="100%" viewBox="0 0 2321 669" version="1.1" xmlns="http://www.w3.org/2000/svg" xmlns:xlink="http://www.w3.org/1999/xlink" xml:space="preserve" xmlns:serif="http://www.serif.com/" style="fill-rule:evenodd;clip-rule:evenodd;stroke-linejoin:round;stroke-miterlimit:2;"><path d="M292.573,375.575l-275.517,-275.518c-22.741,-22.74 -22.741,-58.739 -0,-81.48l1.5,-1.521c22.743,-22.741 58.761,-22.741 81.48,-0l275.539,275.517c22.741,22.741 22.741,58.74 0,81.48l-1.522,1.522c-22.74,22.741 -58.739,22.741 -81.48,0" style="fill:#0fd2ff;"/><path d="M568.475,651.477l-275.518,-275.518c-22.74,-22.74 -22.74,-58.739 0,-81.48l1.522,-1.522c22.741,-22.74 58.74,-22.74 81.48,0l275.518,275.539c22.741,22.72 22.741,58.719 -0,81.459l-1.522,1.522c-22.74,22.741 -58.739,22.741 -81.48,-0" style="fill:#c382fa;"/><path d="M294.642,377.689l-177.829,-177.829c-22.751,-22.754 -22.751,-58.772 0,-81.523l1.503,-1.524c22.751,-22.751 58.788,-22.751 81.522,0l177.851,177.829c22.751,22.754 22.751,58.772 -0,81.523l-1.524,1.524c-22.751,22.751 -58.767,22.751 -81.52,-0" style="fill:#0082fa;"/><path d="M461.175,544.482l-168.116,-168.001c-22.876,-22.857 -22.876,-59.045 0,-81.904l1.53,-1.528c22.877,-22.862 59.086,-22.862 81.962,-0l166.586,166.468c22.876,22.86 22.876,59.066 -0,81.907l-1.531,1.528c-22.475,22.86 -59.085,22.86 -80.431,1.53" style="fill:#8250fa;"/><path d="M568.658,19.212l-549.448,549.074c-22.783,22.785 -22.783,58.852 -0,81.637l1.528,1.505c22.783,22.804 58.852,22.804 81.635,0l549.07,-549.055c22.785,-22.783 22.785,-58.852 -0,-81.637l-1.524,-1.524c-22.409,-22.785 -58.476,-22.785 -81.261,-0" style="fill:#fa0064;"/><path d="M449.479,136.95l-355.994,356.872c-22.773,22.828 -22.773,58.967 -0,81.795l1.502,1.528c22.775,22.808 58.825,22.808 81.599,-0l356.015,-356.873c22.773,-22.83 22.773,-58.967 0,-81.794l-1.523,-1.528c-22.773,-21.302 -59.973,-21.302 -81.599,-0" style="fill:#be0064;"/><path d="M418.743,335.081l73.517,73.515c22.796,22.798 22.796,58.886 0,81.684l-1.524,1.528c-22.793,22.796 -58.879,22.796 -81.673,0l-73.511,-73.523l-105.795,105.808c-22.794,22.8 -58.878,22.8 -81.674,0l-1.526,-1.505c-22.793,-22.798 -22.793,-58.886 0,-81.705l105.8,-105.804l-88.314,-88.331c-22.796,-22.796 -22.796,-58.886 0,-81.684l1.524,-1.524c22.775,-22.8 58.88,-22.8 81.652,0l88.331,88.342l54.9,-54.905c22.794,-22.798 58.88,-22.798 81.674,0l1.526,1.529c22.793,22.795 22.793,58.883 -0,81.662l-54.905,54.913l-0.002,0Z"/><path d="M1227.43,272.583c0,-59 42.918,-89.838 85.857,-89.838l81.68,0c42.938,0 85.856,30.838 85.856,89.838l-0,114.181c-0,58.999 -42.918,89.838 -85.856,89.838l-81.68,0c-42.939,0 -85.857,-30.839 -85.857,-89.838l0,-114.181Zm167.537,-166.358l-81.68,0c-48.247,0 -89.66,18.655 -120.438,53.68c-26.974,30.837 -41.393,72.333 -41.393,114.204l-0,114.185c-0,41.494 14.813,83.365 41.393,114.183c30.778,35.027 72.191,53.68 120.438,53.68l81.68,0c48.246,0 89.659,-18.655 120.437,-53.68c26.975,-30.816 41.415,-72.311 41.415,-114.183l0,-114.185c0,-41.493 -14.835,-83.364 -41.415,-114.204c-30.778,-35.027 -73.318,-53.68 -120.437,-53.68Z"/><path d="M1692.57,272.657c0,-59 42.918,-89.837 85.857,-89.837l81.679,-0c42.939,-0 85.857,30.837 85.857,89.837l-0,114.181c-0,58.999 -42.918,89.838 -85.857,89.838l-81.679,0c-42.939,0 -85.857,-30.839 -85.857,-89.838l0,-114.181Zm167.536,-166.358l-81.679,0c-48.247,0 -89.66,18.655 -120.438,53.68c-26.975,30.837 -41.394,72.333 -41.394,114.204l0,114.186c0,41.493 14.814,83.364 41.394,114.183c30.778,35.026 72.191,53.679 120.438,53.679l81.679,0c48.247,0 89.66,-18.655 120.438,-53.679c26.975,-30.817 41.415,-72.312 41.415,-114.183l-0,-114.186c-0,-41.493 -14.835,-83.364 -41.415,-114.204c-30.778,-35.027 -73.318,-53.68 -120.438,-53.68Z"/><path d="M986.015,374.772l-0.002,-223.404c0,-21.238 -17.445,-38.698 -38.664,-38.698c-21.219,-0 -38.663,17.46 -38.663,38.696l0,367.915c0,21.238 17.446,38.698 38.665,38.698c21.219,0 38.664,-17.46 38.664,-38.698l0,-144.509Z"/><path d="M2281.78,472.3l-0,76.714c21.238,0 38.698,-17.306 38.698,-38.357c0,-21.05 -17.46,-38.357 -38.698,-38.357Z"/><path d="M761.992,296.567l-145.549,0c-21.221,0 -38.647,17.7 -38.647,39.253c0,21.573 17.426,39.273 38.647,39.273l145.549,0c21.221,0 38.648,-17.7 38.648,-39.273c-0,-21.553 -17.053,-39.253 -38.648,-39.253"/><path d="M761.992,296.567l-145.549,0c-21.221,0 -38.647,17.7 -38.647,39.253c0,21.573 17.426,39.273 38.647,39.273l145.549,0c21.221,0 38.648,-17.7 38.648,-39.273c-0,-21.553 -17.053,-39.253 -38.648,-39.253"/><path d="M977.537,106.299l-145.549,0c-21.221,0 -38.648,17.7 -38.648,39.253c0,21.573 17.427,39.273 38.648,39.273l145.549,0c21.221,0 38.647,-17.7 38.647,-39.273c0,-21.553 -17.053,-39.253 -38.647,-39.253"/><path d="M1070.03,106.299l-145.548,0c-21.222,0 -38.648,17.7 -38.648,39.253c0,21.573 17.426,39.273 38.648,39.273l145.548,0c21.221,0 38.648,-17.7 38.648,-39.273c-0,-21.553 -17.053,-39.253 -38.648,-39.253"/><path d="M2241.48,549.212c-47.719,-0 -88.68,-18.414 -119.121,-52.99c-26.682,-30.439 -40.961,-71.379 -40.961,-112.714l-0,-238.612c-0,-21.041 17.298,-38.316 38.337,-38.316c21.038,-0 38.314,17.277 38.314,38.316l-0,238.612c-0,58.239 42.469,88.661 84.939,88.661"/><rect x="2239.51" y="472.361" width="43.097" height="76.81"/></svg>